<svg data-name="レイヤー 1" xmlns="http://www.w3.org/2000/svg" viewBox="0 0 105.93 83.54"><path d="M4.21 65.26h8.2v1H4A2.63 2.63 0 0 0 1.19 68 3.54 3.54 0 0 0 1 69a2.69 2.69 0 0 0 1 2 2.81 2.81 0 0 0 1.36.6h5.91a3.52 3.52 0 0 1 2 .85 3.35 3.35 0 0 1 1.06 1.7l.09.55v.89a3.87 3.87 0 0 1-1 2 4 4 0 0 1-1.78.94H0v-.93h8.46a2.64 2.64 0 0 0 2.89-1.92l.08-.68a2.49 2.49 0 0 0-1.61-2.38l-.77-.17H3.66a3.57 3.57 0 0 1-2.17-.64A3.73 3.73 0 0 1 0 69a4 4 0 0 1 1.36-3 4.58 4.58 0 0 1 2.85-.74zm10.02 3.06a6.21 6.21 0 0 1 2.34-2.17 7.15 7.15 0 0 1 3.78-.85 7.74 7.74 0 0 1 3 .81 6.56 6.56 0 0 1 3 3.61 7 7 0 0 1 .29 2.3 6.28 6.28 0 0 1-.85 3.4 6.22 6.22 0 0 1-3.65 2.93 9 9 0 0 1-2.38.34 6.8 6.8 0 0 1-4.34-1.61 5.62 5.62 0 0 1-1.19-1.41v7.87h-1V65.26h1zm.08 3.49v.29a5.31 5.31 0 0 0 2.26 4.42 6 6 0 0 0 3.19 1h.46a6.47 6.47 0 0 0 3.11-.93A5.65 5.65 0 0 0 25.71 72a6.14 6.14 0 0 0-1.24-3.66 5.8 5.8 0 0 0-4.37-2h-.26a6.45 6.45 0 0 0-3.74 1.36 5.6 5.6 0 0 0-1.79 4.11zm19.8-6.51a7.24 7.24 0 0 1 5.06 2l.68.85a6.69 6.69 0 0 1 1.15 3.7v.3H28.59v.21a5.58 5.58 0 0 0 1.23 3.36 6.09 6.09 0 0 0 2.47 1.61 6.18 6.18 0 0 0 1.82.34 5.58 5.58 0 0 0 5.36-3.18 5.23 5.23 0 0 0 .38-1.36h1v.08a6.27 6.27 0 0 1-1 2.76 7.19 7.19 0 0 1-3.06 2.3 8.81 8.81 0 0 1-2.17.38h-.68a7 7 0 0 1-3.82-1.23 7.22 7.22 0 0 1-1.87-2.21 7.82 7.82 0 0 1-.73-3.21 8.28 8.28 0 0 1 .85-3.45 6.52 6.52 0 0 1 3.36-2.76 13.55 13.55 0 0 1 2.38-.49zm-5.44 5.87h11.22A5.27 5.27 0 0 0 39 68.7a5.14 5.14 0 0 0-2.46-1.91 7.42 7.42 0 0 0-2.26-.47 9.46 9.46 0 0 0-2.42.47 6.88 6.88 0 0 0-2 1.49 4.94 4.94 0 0 0-1.19 2.89zm20.99-5.87h4.59v1h-4.89a6.62 6.62 0 0 0-3.91.85 5.16 5.16 0 0 0-2.34 3.11 11.36 11.36 0 0 0-.25 1.7 9 9 0 0 0 .42 2.25A5.51 5.51 0 0 0 46 77.16a8.42 8.42 0 0 0 3.41.51h4.84v1h-6a6.32 6.32 0 0 1-5.15-2.55 7.2 7.2 0 0 1-1-2.34l-.25-1.53a9.16 9.16 0 0 1 .72-3.4l.55-.89a5.79 5.79 0 0 1 3.28-2.3 10.26 10.26 0 0 1 3.26-.36zm6.41-.08h5.82v1h-5.82v5.48a7.35 7.35 0 0 0 .59 2.59 7.1 7.1 0 0 0 1.83 2.26 6.93 6.93 0 0 0 3.66 1.14h.12v1a7.22 7.22 0 0 1-5.35-2.25 7.65 7.65 0 0 1-1.79-5.15V60.37h1zm13.11.08a6.66 6.66 0 0 1 6 3v-3.04h.93v13.39h-.93v-3a6.6 6.6 0 0 1-3.7 2.73 5.87 5.87 0 0 1-1.49.25h-.38a7 7 0 0 1-4.17-1.19 6.15 6.15 0 0 1-2.38-3.23 8.57 8.57 0 0 1-.38-2.3 7.93 7.93 0 0 1 .85-3.35 6.5 6.5 0 0 1 3.91-3 11.37 11.37 0 0 1 1.74-.26zm-5.44 6.51v.25A5.2 5.2 0 0 0 66.59 77a6.28 6.28 0 0 0 2.68.68h.25a5.75 5.75 0 0 0 4.42-2 6.18 6.18 0 0 0 1.19-3.66 5.53 5.53 0 0 0-2.08-4.42 6.09 6.09 0 0 0-3.53-1.19h-.25a6.12 6.12 0 0 0-4 1.58 5.61 5.61 0 0 0-1.53 3.82zm21.08-6.51h4.59v1h-4.89a6.6 6.6 0 0 0-3.91.85 5.12 5.12 0 0 0-2.34 3.11A11.2 11.2 0 0 0 78 72a8.57 8.57 0 0 0 .43 2.25 5.47 5.47 0 0 0 2.72 2.93 8.36 8.36 0 0 0 3.4.51h4.85v1h-6a6.29 6.29 0 0 1-5.14-2.55 7.2 7.2 0 0 1-1-2.34L77 72.23a9.16 9.16 0 0 1 .72-3.4l.56-.89a5.8 5.8 0 0 1 3.27-2.3 10.33 10.33 0 0 1 3.27-.34zm6.84 13.35h-1V60.37h1zm7.43-13.35a7.26 7.26 0 0 1 5.06 2l.68.85a6.76 6.76 0 0 1 1.1 3.74v.3H93.56v.21a5.53 5.53 0 0 0 1.24 3.36 6.11 6.11 0 0 0 4.29 2 5.55 5.55 0 0 0 5.35-3.18 5.64 5.64 0 0 0 .39-1.36h1v.08a6.27 6.27 0 0 1-1 2.76 7.19 7.19 0 0 1-3.06 2.3 8.88 8.88 0 0 1-2.17.38h-.68a7 7 0 0 1-3.83-1.23 7.22 7.22 0 0 1-1.87-2.21 7.81 7.81 0 0 1-.72-3.3 8.13 8.13 0 0 1 .85-3.45 6.44 6.44 0 0 1 3.36-2.76 13.37 13.37 0 0 1 2.38-.49zm-5.44 5.87h11.22a5.27 5.27 0 0 0-.87-2.47 5.17 5.17 0 0 0-2.47-1.91 7.36 7.36 0 0 0-2.25-.47 9.39 9.39 0 0 0-2.42.47 6.88 6.88 0 0 0-2 1.49 4.94 4.94 0 0 0-1.21 2.89zM52.77 23.35zm9.65-.04a9.73 9.73 0 0 0-9.65 0l-1.84 1.07a4.1 4.1 0 0 1-4 0 4.08 4.08 0 0 1-2.06-3.53 4.05 4.05 0 0 1 .53-2 4 4 0 0 1 1.51-1.52l7.85-4.53 10.89-6.28V0L51.88 7.94 44 12.48a9.72 9.72 0 0 0 .07 16.87 9.75 9.75 0 0 0 4.8 1.26 9.57 9.57 0 0 0 4.85-1.3l1.85-1.06a4.07 4.07 0 0 1 5.57 5.54 4 4 0 0 1-1.5 1.51l-7.82 4.52-11 6.33v6.52l13.79-8 7.81-4.51a9.64 9.64 0 0 0 3.6-3.63 9.75 9.75 0 0 0 1.26-4.8 9.71 9.71 0 0 0-4.93-8.45z" fill="#fff"/></svg>